<?xml version="1.0" encoding="UTF-8"?>
<svg id="Ebene_1" xmlns="http://www.w3.org/2000/svg" version="1.1" viewBox="0 0 595.28 595.28">
  <!-- Generator: Adobe Illustrator 30.0.0, SVG Export Plug-In . SVG Version: 2.1.1 Build 123)  -->
  <defs>
    <style>
      .st0 {
        font-family: MyriadPro-Regular, 'Myriad Pro';
      }

      .st0, .st1, .st2 {
        fill: #002836;
      }

      .st0, .st2 {
        font-size: 120px;
      }

      .st3 {
        fill: #8eabb0;
        stroke: #1d1d1b;
        stroke-miterlimit: 10;
      }

      .st2 {
        font-family: NerkoOne-Regular, 'Nerko One';
      }
    </style>
  </defs>
  <rect class="st3" width="595.28" height="595.28"/>
  <text class="st0" transform="translate(-673.99 .26)"><tspan x="0" y="0">MEMORY</tspan></text>
  <text/>
  <text class="st2" transform="translate(-734.66 257.58)"><tspan x="0" y="0">MEMORY</tspan></text>
  <g>
    <path class="st1" d="M139.75,521.1c-2.47.74-4.53.8-6.18.2-1.65-.61-3.34-1.78-5.08-3.51l-58.05-54.92c-1.91-1.56-3.23-3.14-3.97-4.75-.74-1.6-.87-3.56-.39-5.86.48-2.3,2.19-4.92,5.14-7.88,3.82-3.99,7.31-6.4,10.48-7.22,3.17-.82,6.57-.72,10.22.33l42.17,12.23c-1.73-4.68-3.28-8.78-4.62-12.3-1.34-3.51-2.71-7.09-4.1-10.74-1.39-3.64-2.58-6.83-3.58-9.57-1-2.73-1.63-4.49-1.89-5.27-.43-1.3-.85-3.27-1.24-5.92-.39-2.64-.17-5.68.65-9.11.82-3.43,2.93-6.92,6.31-10.48,2.52-2.69,4.79-4.4,6.83-5.14,2.04-.74,3.77-.95,5.21-.65,1.43.31,2.93,1.07,4.49,2.28,4.43,4.43,8.48,8.44,12.17,12.04,3.69,3.6,7.7,7.57,12.04,11.91s8.7,8.7,13.08,13.08,8.42,8.37,12.1,11.97c3.69,3.6,6.66,6.53,8.92,8.79l3.51,3.51c.09.09.5.54,1.24,1.37.74.83,1.3,2.04,1.69,3.64.39,1.61.2,3.54-.59,5.79-.78,2.26-2.65,4.86-5.6,7.81s-5.51,4.86-7.68,5.73c-2.17.87-3.97,1.2-5.4.97-1.43-.21-2.84-.84-4.23-1.89-3.04-3.04-5.68-5.72-7.94-8.07-2.26-2.34-4.51-4.68-6.77-7.03-2.25-2.34-4.95-5.08-8.07-8.2l-17.57-19.65,7.68,21.21c.95,2.87,1.26,5.42.91,7.68-.35,2.26-1.78,4.73-4.3,7.42-2.43,2.61-4.77,4.21-7.03,4.82-2.26.61-4.77.65-7.55.13l-23.95-7.03c4.34,3.82,8.22,7.27,11.65,10.35,3.43,3.08,7.03,6.34,10.8,9.76,3.77,3.43,7.31,6.66,10.61,9.7,3.3,3.04,5.95,5.47,7.94,7.29,2.43,2.26,3.75,4.53,3.97,6.83.22,2.3-.13,4.39-1.04,6.25-.91,1.87-2.41,3.93-4.49,6.18-3.21,3.21-6.05,5.19-8.53,5.92Z"/>
    <path class="st1" d="M151.65,379.82c-1.82-1.13-3.1-2.36-3.84-3.71-.74-1.35-.91-3.08-.52-5.21.39-2.12,1.84-4.71,4.36-7.74,2.52-3.04,5.45-6.4,8.79-10.09,3.34-3.69,6.55-7.24,9.63-10.67,3.08-3.43,6.62-7.31,10.61-11.65,2.43-2.25,4.6-4.03,6.51-5.34,1.91-1.3,3.93-2.19,6.05-2.67,2.13-.48,4.1-.07,5.92,1.24,1.82,1.3,2.73,2.82,2.73,4.56,0,1.74-.41,3.41-1.24,5.01-.83,1.61-2.11,3.45-3.84,5.53l-19.65,22c2.78,1.74,5.03,3.17,6.77,4.29,1.73,1.13,3.17,2.17,4.29,3.12,1.04.87,2.37,2.02,3.97,3.45,1.6,1.43,3.66,3.23,6.18,5.4l9.63-9.63c2-1.82,3.78-3.21,5.34-4.16,1.56-.95,3.12-1.6,4.69-1.95,1.56-.35,2.99.04,4.29,1.17,1.65,1.48,2.23,3.23,1.76,5.27-.48,2.04-1.28,3.84-2.41,5.4-1.13,1.56-1.82,2.56-2.08,2.99-.26.26-.93.98-2.02,2.15-1.08,1.17-2.3,2.43-3.64,3.77s-3.06,3.06-5.14,5.14c2.6,2.43,4.77,4.43,6.51,5.99,1.74,1.56,3.17,3,4.29,4.29,1.13,1.13,2.45,2.54,3.97,4.23,1.52,1.69,3.36,3.8,5.53,6.31l16.92-18.22c2.17-2.34,4.17-4.17,5.99-5.47s3.73-2.17,5.73-2.6c1.99-.43,3.82.09,5.47,1.56,1.74,1.39,2.56,3.08,2.47,5.08-.09,2-.61,3.91-1.56,5.73-.95,1.82-2.39,3.95-4.29,6.38l-26.68,29.54c-2.6,2.78-4.92,4.88-6.96,6.31-2.04,1.43-4.21,2.3-6.51,2.6-2.3.31-4.45-.63-6.44-2.8-2.6-2.95-6.79-7.48-12.56-13.6-5.77-6.12-12.82-12.99-21.15-20.63-8.33-7.63-17.61-15.09-27.85-22.39Z"/>
    <path class="st1" d="M282,378.84c-2.47.74-4.53.8-6.18.2-1.65-.61-3.34-1.78-5.08-3.51l-58.05-54.92c-1.91-1.56-3.23-3.14-3.97-4.75-.74-1.6-.87-3.56-.39-5.86.48-2.3,2.19-4.92,5.14-7.88,3.82-3.99,7.31-6.4,10.48-7.22,3.17-.82,6.57-.72,10.22.33l42.17,12.23c-1.73-4.68-3.28-8.78-4.62-12.3-1.34-3.51-2.71-7.09-4.1-10.74-1.39-3.64-2.58-6.83-3.58-9.57-1-2.73-1.63-4.49-1.89-5.27-.43-1.3-.85-3.27-1.24-5.92-.39-2.64-.17-5.68.65-9.11.82-3.43,2.93-6.92,6.31-10.48,2.52-2.69,4.79-4.4,6.83-5.14,2.04-.74,3.77-.95,5.21-.65,1.43.31,2.93,1.07,4.49,2.28,4.43,4.43,8.48,8.44,12.17,12.04,3.69,3.6,7.7,7.57,12.04,11.91s8.7,8.7,13.08,13.08,8.42,8.37,12.1,11.97c3.69,3.6,6.66,6.53,8.92,8.79l3.51,3.51c.09.09.5.54,1.24,1.37.74.83,1.3,2.04,1.69,3.64.39,1.61.2,3.54-.59,5.79-.78,2.26-2.65,4.86-5.6,7.81s-5.51,4.86-7.68,5.73c-2.17.87-3.97,1.2-5.4.97-1.43-.21-2.84-.84-4.23-1.89-3.04-3.04-5.68-5.72-7.94-8.07-2.26-2.34-4.51-4.68-6.77-7.03-2.25-2.34-4.95-5.08-8.07-8.2l-17.57-19.65,7.68,21.21c.95,2.87,1.26,5.42.91,7.68-.35,2.26-1.78,4.73-4.3,7.42-2.43,2.61-4.77,4.21-7.03,4.82-2.26.61-4.77.65-7.55.13l-23.95-7.03c4.34,3.82,8.22,7.27,11.65,10.35,3.43,3.08,7.03,6.34,10.8,9.76,3.77,3.43,7.31,6.66,10.61,9.7,3.3,3.04,5.95,5.47,7.94,7.29,2.43,2.26,3.75,4.53,3.97,6.83.22,2.3-.13,4.39-1.04,6.25-.91,1.87-2.41,3.93-4.49,6.18-3.21,3.21-6.05,5.19-8.53,5.92Z"/>
    <path class="st1" d="M322.41,265.29c-6.94-6.94-12.08-14.51-15.42-22.71-3.34-8.2-4.64-16.09-3.9-23.69.74-7.59,3.62-13.9,8.66-18.94,3.73-3.73,8.26-6.31,13.6-7.74s11.06-1.69,17.18-.78c6.12.91,12.21,2.93,18.29,6.05,6.07,3.12,11.71,7.29,16.92,12.49s9.37,10.85,12.49,16.92c3.12,6.08,5.14,12.17,6.05,18.29.91,6.12.65,11.84-.78,17.18-1.43,5.34-4.01,9.87-7.74,13.6-5.03,5.03-11.34,7.92-18.94,8.66-7.59.74-15.47-.54-23.62-3.84-8.16-3.3-15.75-8.46-22.78-15.49ZM341.8,244.85c5.03,5.03,10,9.31,14.9,12.82,4.9,3.52,9.2,5.9,12.89,7.16,3.69,1.26,6.27,1.15,7.74-.33s1.58-4.06.33-7.74c-1.26-3.69-3.64-7.98-7.16-12.89-3.51-4.9-7.79-9.87-12.82-14.9s-10.11-9.41-14.97-12.89c-4.86-3.47-9.15-5.86-12.88-7.16-3.73-1.3-6.33-1.21-7.81.26s-1.56,4.08-.26,7.81c1.3,3.73,3.69,8.03,7.16,12.88,3.47,4.86,7.77,9.85,12.89,14.97Z"/>
    <path class="st1" d="M358.59,177.31c-1.48-.61-2.6-1.39-3.39-2.34-.78-.95-1.19-2.36-1.24-4.23-.04-1.86.67-4.32,2.15-7.35,1.91-4.16,4.56-8.67,7.94-13.54,3.39-4.86,7.57-9.43,12.56-13.73,4.99-4.29,10.95-7.48,17.9-9.57,4.08-1.3,8.07-1.3,11.97,0,3.9,1.3,7.46,3.3,10.67,5.99,3.21,2.69,6.05,5.49,8.53,8.4,2.47,2.91,5.05,6.49,7.74,10.74,1.39,3.82,2.04,7.38,1.95,10.67-.09,3.3-1.26,7.03-3.51,11.19l38.4,1.43c2.6.17,4.6.56,5.99,1.17,1.39.61,2.3,1.69,2.73,3.25.43,1.56-.17,3.86-1.82,6.9-1.74,3.12-3.71,5.44-5.92,6.96-2.21,1.52-4.29,2.47-6.25,2.86s-4.23.5-6.83.33l-38.39-4.03,22.65,14.06c1.82,1.13,3.04,2.34,3.64,3.64.61,1.3.59,3.02-.07,5.14-.65,2.13-2.49,4.71-5.53,7.74s-5.75,5.05-8.13,6.05c-2.39,1-4.4,1.37-6.05,1.11-1.65-.26-3.3-.95-4.95-2.08l-62.73-50.76ZM376.81,158.82l29.28,23.04c2.17-1.82,3.84-3.58,5.01-5.27,1.17-1.69,1.93-3.71,2.28-6.05.35-2.34-.11-5.01-1.37-8-1.26-2.99-3.88-6.23-7.88-9.7-3.82-3.3-7.14-5.23-9.96-5.79-2.82-.56-5.29-.26-7.42.91-2.12,1.17-3.99,2.78-5.6,4.82-1.6,2.04-3.06,4.06-4.36,6.05Z"/>
    <path class="st1" d="M410.39,100.26c2.6-3.29,5.23-5.66,7.87-7.09,2.65-1.43,5.88-1.71,9.7-.85,2.43.52,5.16,1.3,8.2,2.34,3.04,1.04,5.96,2.15,8.79,3.32,2.82,1.17,6.05,2.54,9.7,4.1l-11.19-26.81c-.26-2.86.02-5.4.85-7.61.82-2.21,2.67-4.58,5.53-7.09,8.41-7.37,13.8-7.81,16.14-1.3.43,1.3,1.24,3.67,2.41,7.09,1.17,3.43,2.45,7.27,3.84,11.52,1.39,4.25,2.76,8.4,4.1,12.43,1.34,4.04,2.88,8.66,4.62,13.86l32.41,31.11c1.56,1.39,2.63,2.8,3.19,4.23.56,1.43.52,3.21-.13,5.34-.65,2.13-2.41,4.62-5.27,7.48-3.82,3.82-7.14,6.1-9.96,6.83-2.82.74-5.08.7-6.77-.13-1.69-.82-2.84-1.54-3.45-2.15-.35-.35-1.67-1.62-3.97-3.84-2.3-2.21-4.97-4.84-8-7.87s-6.09-6.05-9.18-9.05c-3.08-2.99-6.66-6.44-10.74-10.35l-44.9-10.28c-2.6-.52-4.51-1.26-5.73-2.21-1.21-.95-1.82-2.47-1.82-4.56,0-2.08,1.26-4.9,3.77-8.46Z"/>
  </g>
</svg>